<?xml version="1.0" standalone="no"?>
<!DOCTYPE svg PUBLIC "-//W3C//DTD SVG 20010904//EN"
 "http://www.w3.org/TR/2001/REC-SVG-20010904/DTD/svg10.dtd">
<svg version="1.0" xmlns="http://www.w3.org/2000/svg"
 width="360.000000pt" height="503.000000pt" viewBox="0 0 360.000000 503.000000"
 preserveAspectRatio="xMidYMid meet">
<metadata>
Created by potrace 1.16, written by Peter Selinger 2001-2019
</metadata>
<g transform="translate(0.000000,503.000000) scale(0.100000,-0.100000)"
fill="#000000" stroke="none">
<path d="M455 4807 c-3 -12 -5 -53 -3 -91 l3 -69 137 -96 c286 -201 506 -400
602 -545 105 -157 142 -293 134 -493 -5 -130 -17 -166 -51 -161 -22 3 -22 6
-19 138 4 162 -11 244 -69 369 -94 203 -323 429 -626 618 -94 58 -107 54 -111
-38 -1 -35 1 -69 5 -74 5 -6 46 -37 93 -69 284 -196 430 -356 489 -532 40
-121 51 -328 19 -360 -32 -32 -44 -4 -51 113 -15 270 -85 397 -328 594 -187
151 -229 157 -229 31 0 -59 3 -62 125 -164 241 -202 281 -286 257 -546 -24
-259 -14 -348 51 -447 74 -110 303 -240 463 -262 54 -7 85 -39 109 -115 23
-69 30 -77 92 -104 28 -13 55 -28 59 -35 4 -8 -11 -29 -42 -58 -74 -69 -84
-87 -84 -157 0 -53 5 -69 40 -127 47 -77 67 -155 50 -187 -6 -12 -44 -36 -85
-55 -293 -133 -477 -395 -510 -728 l-7 -68 85 -39 c117 -53 271 -104 397 -129
112 -22 290 -41 290 -30 0 3 -29 9 -64 12 -73 7 -258 52 -287 70 -47 29 -16
32 323 29 331 -2 345 -3 388 -25 34 -17 44 -27 43 -43 -2 -21 -2 -21 70 -6 40
8 74 17 76 18 2 2 -4 11 -13 20 -32 32 -14 39 100 39 109 1 109 1 199 45 l90
45 -2 75 c-5 205 -128 442 -308 593 -63 53 -207 135 -262 149 -22 6 -23 11
-23 91 0 72 5 98 30 160 17 42 30 87 30 102 0 15 -14 58 -30 95 -48 110 -48
120 -2 158 33 26 43 42 53 88 18 79 38 100 107 114 178 34 380 145 457 250 21
28 46 79 57 113 18 56 19 76 11 217 -4 85 -8 200 -7 255 1 173 40 236 254 418
58 49 111 99 117 110 15 27 17 86 3 123 -9 23 -14 26 -42 20 -70 -14 -343
-245 -407 -344 -58 -91 -101 -254 -101 -384 0 -74 -11 -108 -36 -108 -34 0
-43 101 -23 246 34 244 173 420 519 660 47 32 88 63 92 69 14 20 9 123 -7 139
-20 20 -31 15 -152 -65 -357 -236 -560 -469 -624 -717 -16 -63 -20 -103 -17
-219 3 -152 -5 -184 -38 -151 -24 23 -34 82 -34 203 0 184 35 301 132 447 101
151 317 347 600 544 68 47 129 93 136 102 17 22 16 143 -2 167 -13 18 -16 17
-80 -18 -229 -126 -637 -479 -785 -677 -76 -103 -153 -256 -182 -365 -30 -107
-33 -367 -7 -462 25 -89 71 -205 84 -210 7 -2 57 18 113 46 147 74 201 66 201
-32 0 -114 -93 -153 -255 -107 -98 28 -167 26 -221 -5 l-42 -25 -4 118 c-4
124 -23 189 -70 239 -46 49 -226 51 -303 3 -43 -26 -75 -88 -75 -143 l0 -44
46 -6 c54 -6 98 -34 102 -67 3 -20 -16 -100 -23 -100 -2 0 -22 11 -46 24 -69
37 -103 39 -209 11 -52 -13 -112 -25 -133 -25 -73 0 -130 44 -137 105 -13 122
38 136 199 55 56 -27 105 -50 110 -50 13 0 58 109 83 203 30 113 30 344 0 459
-79 294 -251 511 -671 848 -157 125 -332 240 -366 240 -8 0 -17 -10 -20 -23z
m1445 -1912 c54 -28 63 -69 28 -118 -13 -17 -36 -58 -53 -91 -40 -79 -55 -83
-55 -14 0 74 -15 120 -55 168 -19 23 -35 46 -35 50 0 5 21 11 48 13 26 2 57 4
70 5 13 1 36 -5 52 -13z m-203 -85 c43 -26 62 -58 84 -138 23 -80 25 -132 5
-132 -21 0 -105 68 -137 112 -25 35 -29 50 -29 103 0 34 3 65 7 68 11 12 37 7
70 -13z m250 -387 c98 -65 118 -121 58 -160 -42 -28 -55 -29 -55 -5 -1 29 -35
95 -78 146 -23 27 -39 54 -35 59 9 14 52 -1 110 -40z m370 -698 c68 -45 -5
-74 -202 -81 -90 -3 -155 -1 -159 4 -12 20 40 48 142 74 114 30 176 31 219 3z
m100 -107 c54 -60 50 -76 -27 -103 -56 -20 -569 -22 -588 -3 -17 17 -15 35 8
58 19 19 34 20 238 20 205 1 220 2 272 24 70 30 73 30 97 4z m-930 -26 c45 -4
83 -9 85 -12 2 -3 16 -22 31 -42 l28 -38 -110 0 c-131 0 -191 17 -191 55 0 33
28 58 54 50 12 -4 58 -10 103 -13z m1016 -116 c21 -21 40 -73 33 -91 -3 -8
-27 -29 -53 -45 l-47 -30 -229 0 -229 0 -65 63 -65 62 274 5 c258 5 275 6 313
27 48 27 50 27 68 9z m-1149 -21 c33 -10 94 -15 188 -15 l139 0 60 -57 c32
-31 59 -60 59 -65 0 -4 -98 -8 -218 -8 -288 0 -336 15 -316 97 8 35 23 63 32
63 4 0 29 -7 56 -15z m1233 -225 c15 -90 7 -107 -67 -145 -45 -23 -60 -25
-179 -25 -108 0 -132 3 -149 18 -35 30 -132 141 -132 151 0 5 84 11 188 13
186 4 187 4 247 36 33 17 64 30 70 28 5 -1 15 -36 22 -76z m-1212 20 c33 -5
158 -10 277 -10 138 0 225 -4 240 -11 31 -15 141 -146 133 -159 -4 -6 -118
-10 -320 -10 -293 0 -318 1 -370 21 -60 22 -69 33 -85 104 -15 68 -6 89 34 80
17 -3 58 -10 91 -15z"/>
<path d="M523 3810 c-119 -72 -65 -260 75 -260 84 0 142 56 142 138 0 85 -56
142 -140 142 -27 0 -58 -8 -77 -20z"/>
<path d="M2940 3814 c-90 -57 -91 -195 -2 -247 42 -25 117 -25 150 0 91 68 92
181 3 240 -40 27 -113 30 -151 7z"/>
<path d="M376 3582 c-8 -13 13 -104 35 -149 40 -83 112 -116 254 -117 l90 -1
-2 46 c-2 77 -11 85 -102 92 -101 8 -138 24 -205 87 -54 51 -61 56 -70 42z"/>
<path d="M3170 3545 c-61 -62 -109 -83 -210 -92 -76 -7 -86 -10 -97 -33 -7
-14 -12 -43 -11 -65 l3 -40 97 1 c87 0 103 3 154 30 46 23 63 39 86 81 29 52
51 163 31 163 -5 0 -29 -20 -53 -45z"/>
<path d="M335 3357 c-10 -65 10 -126 56 -169 46 -44 76 -53 227 -68 138 -14
146 -10 139 64 -5 60 -24 76 -86 76 -71 0 -169 19 -210 40 -21 10 -54 37 -74
59 -20 23 -39 41 -41 41 -3 0 -8 -19 -11 -43z"/>
<path d="M3227 3365 c-54 -68 -153 -103 -298 -106 -29 -1 -56 -8 -65 -16 -21
-21 -19 -122 2 -130 9 -3 77 1 152 10 119 14 141 20 176 44 55 38 76 83 76
160 0 34 -4 64 -8 67 -4 2 -20 -11 -35 -29z"/>
<path d="M436 3057 c-25 -17 -46 -36 -46 -43 0 -17 49 -54 72 -54 15 0 162 48
231 75 33 14 16 23 -50 30 -38 3 -89 9 -114 14 -42 7 -51 5 -93 -22z"/>
<path d="M3055 3073 c-16 -1 -58 -6 -93 -9 -36 -3 -62 -10 -60 -16 5 -15 205
-88 240 -88 26 0 78 40 78 60 0 3 -16 14 -35 23 -19 9 -35 21 -35 27 0 10 -32
11 -95 3z"/>
<path d="M617 2985 c-54 -25 -111 -45 -126 -45 -30 0 -71 -36 -71 -62 0 -23
54 -41 105 -36 83 10 282 189 208 188 -10 0 -62 -21 -116 -45z"/>
<path d="M2850 3017 c0 -21 20 -42 109 -111 79 -62 88 -66 135 -66 47 0 96 19
96 38 0 20 -53 62 -79 62 -16 0 -72 20 -125 45 -100 46 -136 55 -136 32z"/>
<path d="M715 2929 c-28 -23 -74 -57 -102 -77 -48 -32 -113 -116 -100 -129 3
-3 25 -2 49 2 37 6 55 19 126 90 72 73 82 87 82 119 0 20 -1 36 -3 36 -1 0
-25 -19 -52 -41z"/>
<path d="M2830 2940 c0 -23 17 -49 75 -115 76 -84 109 -105 173 -105 l23 0
-23 41 c-15 27 -54 64 -113 108 -49 37 -96 75 -104 84 -20 25 -31 21 -31 -13z"/>
<path d="M718 2802 c-29 -26 -71 -61 -93 -77 -22 -16 -43 -34 -47 -39 -9 -13
-10 -70 -2 -78 22 -23 115 53 192 155 22 31 30 87 13 87 -5 0 -33 -21 -63 -48z"/>
<path d="M2820 2815 c0 -29 12 -48 70 -114 78 -89 74 -86 113 -95 26 -6 27 -5
27 38 0 43 -2 46 -62 89 -35 25 -79 61 -97 81 -19 20 -39 36 -43 36 -4 0 -8
-16 -8 -35z"/>
<path d="M875 2823 c-29 -7 -41 -19 -106 -105 -50 -64 -59 -83 -59 -117 0 -23
2 -41 5 -41 22 0 88 46 117 83 34 40 108 165 108 180 0 8 -34 7 -65 0z"/>
<path d="M2660 2826 c0 -12 87 -156 114 -189 33 -40 100 -82 116 -72 6 3 10
20 10 37 0 43 -118 202 -162 217 -30 11 -78 15 -78 7z"/>
<path d="M974 2790 c-24 -9 -94 -118 -94 -144 0 -18 29 -80 35 -74 2 1 26 34
54 73 42 58 51 77 51 112 0 45 -6 49 -46 33z"/>
<path d="M2584 2785 c-12 -30 7 -83 52 -143 25 -34 50 -62 55 -62 5 0 16 16
24 36 15 36 14 38 -21 98 -21 33 -44 67 -52 74 -21 17 -51 15 -58 -3z"/>
<path d="M2497 2763 c-36 -15 -38 -18 -33 -46 3 -16 6 -51 6 -78 0 -37 6 -54
25 -76 l25 -28 20 25 c16 20 20 40 20 106 0 49 -5 86 -12 96 -12 15 -16 15
-51 1z"/>
<path d="M1047 2749 c-4 -13 -7 -53 -7 -89 0 -59 7 -82 37 -119 2 -3 14 6 28
19 21 19 25 33 25 76 0 29 4 64 9 78 12 30 -2 45 -52 53 -30 4 -35 2 -40 -18z"/>
<path d="M1181 2717 c-6 -8 -14 -45 -17 -85 -7 -69 -6 -72 25 -111 18 -23 38
-41 45 -41 27 0 46 36 46 86 0 27 6 59 14 70 17 24 13 31 -41 67 -48 31 -56
32 -72 14z"/>
<path d="M2347 2700 c-45 -28 -58 -52 -37 -65 6 -3 10 -32 10 -64 0 -43 5 -62
18 -74 26 -24 36 -21 71 18 28 33 31 42 31 106 0 72 -11 109 -33 109 -7 0 -34
-13 -60 -30z"/>
<path d="M1336 2642 c-2 -9 -7 -37 -10 -62 -6 -42 -4 -48 26 -77 30 -28 69
-53 82 -53 16 0 16 74 0 117 -20 54 -28 65 -66 81 -23 9 -28 9 -32 -6z"/>
<path d="M2224 2644 c-59 -25 -96 -184 -43 -184 11 0 37 17 60 37 41 37 41 38
35 93 -4 30 -10 58 -14 61 -4 4 -21 1 -38 -7z"/>
<path d="M569 2068 c-12 -18 -52 -64 -87 -101 -36 -37 -62 -71 -58 -74 3 -3
14 1 24 10 23 21 85 47 112 47 37 0 104 -39 176 -103 73 -66 119 -91 151 -85
21 4 1 26 -124 135 -53 47 -79 79 -105 130 -19 37 -42 69 -50 71 -9 2 -26 -12
-39 -30z"/>
<path d="M3014 2088 c-4 -6 -20 -38 -37 -70 -20 -41 -50 -77 -100 -121 -39
-34 -87 -78 -107 -97 -33 -33 -34 -35 -13 -38 31 -5 78 23 150 87 69 61 136
101 171 101 28 0 90 -25 114 -47 10 -9 21 -14 24 -10 3 3 -25 39 -62 80 -38
41 -79 86 -91 101 -23 28 -38 33 -49 14z"/>
<path d="M510 1907 c-61 -32 -248 -182 -272 -219 -57 -84 -19 -176 102 -255
129 -84 142 -94 156 -130 10 -23 13 -50 9 -77 -6 -40 -5 -40 33 29 45 83 91
119 139 112 17 -3 63 -19 101 -36 113 -50 172 -38 172 35 0 78 -68 146 -231
229 -60 31 -125 69 -143 86 -63 55 -78 135 -39 212 15 30 10 33 -27 14z"/>
<path d="M3103 1893 c61 -120 17 -195 -172 -293 -175 -90 -241 -154 -241 -234
0 -73 59 -85 172 -35 38 17 84 33 101 36 48 7 94 -29 137 -109 46 -86 50 -89
38 -35 -7 34 -6 53 6 81 15 35 33 50 156 129 42 27 77 60 98 91 51 77 42 135
-35 207 -55 52 -224 175 -251 184 -23 7 -23 6 -9 -22z"/>
<path d="M570 1885 c-25 -31 -30 -87 -11 -131 22 -48 68 -83 184 -137 l79 -37
46 51 c26 29 51 58 55 65 12 20 -1 36 -24 29 -28 -9 -105 29 -166 83 -108 93
-138 107 -163 77z"/>
<path d="M2993 1878 c-17 -13 -55 -44 -85 -69 -65 -57 -108 -79 -155 -83 -20
-1 -38 -7 -40 -13 -2 -6 19 -38 48 -70 29 -32 53 -59 54 -61 3 -4 157 72 200
98 73 45 101 134 61 195 -20 31 -43 32 -83 3z"/>
<path d="M650 1325 c-16 -19 -4 -51 28 -73 43 -31 224 -123 230 -118 2 3 8 22
12 43 4 21 11 50 14 64 7 26 6 26 -43 27 -32 1 -73 12 -114 30 -86 39 -112 45
-127 27z"/>
<path d="M2940 1330 c-14 -4 -52 -20 -84 -35 -37 -16 -77 -26 -108 -27 -34 0
-48 -4 -45 -12 3 -6 10 -37 17 -69 6 -31 14 -57 17 -57 3 0 57 28 121 62 118
65 154 97 136 126 -13 20 -23 22 -54 12z"/>
<path d="M546 1211 c-26 -51 -65 -112 -87 -137 -46 -54 -48 -77 -11 -133 69
-103 418 -298 689 -385 245 -79 490 -112 758 -102 415 14 796 136 1140 364
123 82 175 138 175 188 0 12 -20 46 -45 76 -25 29 -62 86 -83 126 -38 78 -53
95 -61 71 -11 -34 -77 -81 -229 -163 -337 -183 -577 -252 -912 -263 -269 -9
-525 34 -763 127 -131 51 -444 221 -477 258 -14 16 -30 37 -35 46 -9 15 -18 3
-59 -73z m539 -283 c30 -14 30 -11 5 -133 -11 -54 -19 -99 -18 -100 7 -5 128
-43 128 -40 0 5 30 168 35 193 5 19 10 21 33 16 15 -4 31 -10 36 -15 14 -13
-24 -240 -41 -246 -28 -11 -257 67 -266 91 -3 7 3 55 14 107 32 158 26 149 74
127z m1494 -48 c9 -28 8 -32 -15 -40 -35 -14 -52 -12 -61 4 -7 13 -16 12 -63
-4 -30 -10 -55 -22 -54 -26 0 -5 9 -46 19 -91 18 -81 19 -82 44 -76 73 18 96
30 94 52 -3 21 28 41 62 41 18 0 29 -49 14 -66 -12 -15 -219 -84 -250 -84 -21
0 -22 3 -48 135 -12 60 -17 103 -11 109 13 13 200 74 232 75 20 1 28 -5 37
-29z m-1054 -83 c1 -1 27 -37 59 -81 66 -89 76 -88 76 7 l0 58 38 -3 37 -3 -4
-125 c-2 -69 -5 -126 -6 -128 -2 -2 -19 0 -39 4 -31 5 -47 19 -98 85 -33 44
-62 78 -64 76 -6 -6 -13 -51 -13 -94 -1 -42 -2 -43 -35 -43 -19 0 -38 5 -41
11 -4 6 -1 64 6 130 l12 121 36 -7 c20 -4 36 -8 36 -8z m629 -13 c9 -23 7 -54
-3 -54 -5 0 -23 -3 -40 -6 -24 -5 -31 -3 -31 10 0 13 -11 16 -52 16 -119 0
-100 -39 35 -76 109 -29 127 -42 127 -86 0 -37 -15 -42 -157 -57 -137 -15
-153 -12 -153 35 0 33 1 34 40 34 34 0 40 -3 40 -21 0 -20 3 -21 68 -14 79 8
82 10 75 33 -3 13 -36 28 -111 53 l-107 35 -3 41 c-4 49 -9 46 128 61 129 14
137 14 144 -4z"/>
<path d="M1182 499 c3 -8 42 -45 89 -82 146 -119 311 -184 496 -194 181 -10
346 32 499 127 76 47 192 145 183 154 -2 3 -36 -4 -74 -15 -156 -43 -294 -61
-510 -66 -161 -4 -237 -1 -325 11 -110 15 -304 56 -344 72 -14 5 -17 3 -14 -7z"/>
</g>
</svg>
